<?xml version="1.0" encoding="UTF-8"?>
<svg id="Layer_1" data-name="Layer 1" xmlns="http://www.w3.org/2000/svg" viewBox="0 0 607.94 777.93">
  <defs>
    <style>
      .cls-1 {
        fill: #fbb040;
      }

      .cls-1, .cls-2, .cls-3 {
        stroke: #231f20;
        stroke-miterlimit: 10;
      }

      .cls-2 {
        fill: #f7941d;
      }

      .cls-3 {
        fill: #f15a29;
      }
    </style>
  </defs>
  <path class="cls-3" d="M82.77,316.24c-.79-28.28,119.67-65.17,138-38,11.61,17.21-26.93,46.49-15,75,16.36,39.12,104.82,22.08,111,48,4.77,20-40.87,59.81-76,52-31.63-7.03-27.32-46.57-74-87-44.03-38.13-83.55-33.84-84-50Z"/>
  <path class="cls-1" d="M452.62,394.42c.79-28.28-119.67-65.17-138-38-11.61,17.21,26.93,46.49,15,75-16.36,39.12-104.82,22.08-111,48-4.77,20,40.87,59.81,76,52,31.63-7.03,27.32-46.57,74-87,44.03-38.13,83.55-33.84,84-50Z"/>
  <path class="cls-2" d="M354.25,313.98c.79,28.28-119.67,65.17-138,38-11.61-17.21,26.93-46.49,15-75-16.36-39.12-104.82-22.08-111-48-4.77-20,40.87-59.81,76-52,31.63,7.03,27.32,46.57,74,87,44.03,38.13,83.55,33.84,84,50Z"/>
  <path class="cls-3" d="M171.95,113.58c-.62-22.2,93.94-51.16,108.32-29.83,9.11,13.51-21.14,36.49-11.77,58.87,12.84,30.71,82.28,17.34,87.13,37.68,3.74,15.7-32.08,46.95-59.66,40.82-24.83-5.52-21.44-36.56-58.09-68.29-34.56-29.93-65.58-26.57-65.94-39.25Z"/>
  <path class="cls-1" d="M462.27,174.94c.62-22.2-93.94-51.16-108.32-29.83-9.11,13.51,21.14,36.49,11.77,58.87-12.84,30.71-82.28,17.34-87.13,37.68-3.74,15.7,32.08,46.95,59.66,40.82,24.83-5.52,21.44-36.56,58.09-68.29,34.56-29.93,65.58-26.57,65.94-39.25Z"/>
  <path class="cls-2" d="M385.06,111.8c.62,22.2-93.94,51.16-108.32,29.83-9.11-13.51,21.14-36.49,11.77-58.87-12.84-30.71-82.28-17.34-87.13-37.68-3.74-15.7,32.08-46.95,59.66-40.82,24.83,5.52,21.44,36.56,58.09,68.29,34.56,29.93,65.58,26.57,65.94,39.25Z"/>
  <path class="cls-3" d="M317.11,558.44c-.62-22.2,93.94-51.16,108.32-29.83,9.11,13.51-21.14,36.49-11.77,58.87,12.84,30.71,82.28,17.34,87.13,37.68,3.74,15.7-32.08,46.95-59.66,40.82-24.83-5.52-21.44-36.56-58.09-68.29-34.56-29.93-65.58-26.57-65.94-39.25Z"/>
  <path class="cls-1" d="M607.43,619.81c.62-22.2-93.94-51.16-108.32-29.83-9.11,13.51,21.14,36.49,11.77,58.87-12.84,30.71-82.28,17.34-87.13,37.68-3.74,15.7,32.08,46.95,59.66,40.82,24.83-5.52,21.44-36.56,58.09-68.29,34.56-29.93,65.58-26.57,65.94-39.25Z"/>
  <path class="cls-2" d="M530.22,556.67c.62,22.2-93.94,51.16-108.32,29.83-9.11-13.51,21.14-36.49,11.77-58.87-12.84-30.71-82.28-17.34-87.13-37.68-3.74-15.7,32.08-46.95,59.66-40.82,24.83,5.52,21.44,36.56,58.09,68.29,34.56,29.93,65.58,26.57,65.94,39.25Z"/>
  <path class="cls-3" d="M102.92,601.3c-.62-22.2,93.94-51.16,108.32-29.83,9.11,13.51-21.14,36.49-11.77,58.87,12.84,30.71,82.28,17.34,87.13,37.68,3.74,15.7-32.08,46.95-59.66,40.82-24.83-5.52-21.44-36.56-58.09-68.29-34.56-29.93-65.58-26.57-65.94-39.25Z"/>
  <path class="cls-1" d="M393.24,662.67c.62-22.2-93.94-51.16-108.32-29.83-9.11,13.51,21.14,36.49,11.77,58.87-12.84,30.71-82.28,17.34-87.13,37.68-3.74,15.7,32.08,46.95,59.66,40.82,24.83-5.52,21.44-36.56,58.09-68.29,34.56-29.93,65.58-26.57,65.94-39.25Z"/>
  <path class="cls-2" d="M316.03,599.53c.62,22.2-93.94,51.16-108.32,29.83-9.11-13.51,21.14-36.49,11.77-58.87-12.84-30.71-82.28-17.34-87.13-37.68-3.74-15.7,32.08-46.95,59.66-40.82,24.83,5.52,21.44,36.56,58.09,68.29,34.56,29.93,65.58,26.57,65.94,39.25Z"/>
  <path class="cls-3" d="M10.45,403.6c-.42-14.82,62.7-34.14,72.3-19.91,6.08,9.01-14.11,24.36-7.86,39.29,8.57,20.49,54.92,11.57,58.15,25.15,2.5,10.48-21.41,31.33-39.82,27.24-16.57-3.68-14.31-24.4-38.77-45.58-23.07-19.98-43.77-17.73-44.01-26.2Z"/>
  <path class="cls-1" d="M204.22,444.56c.42-14.82-62.7-34.14-72.3-19.91-6.08,9.01,14.11,24.36,7.86,39.29-8.57,20.49-54.92,11.57-58.15,25.15-2.5,10.48,21.41,31.33,39.82,27.24,16.57-3.68,14.31-24.4,38.77-45.58,23.07-19.98,43.77-17.73,44.01-26.2Z"/>
  <path class="cls-2" d="M152.69,402.42c.42,14.82-62.7,34.14-72.3,19.91-6.08-9.01,14.11-24.36,7.86-39.29-8.57-20.49-54.92-11.57-58.15-25.15-2.5-10.48,21.41-31.33,39.82-27.24,16.57,3.68,14.31,24.4,38.77,45.58,23.07,19.98,43.77,17.73,44.01,26.2Z"/>
  <path class="cls-3" d="M443.13,106.28c-10.04-9.49,18.82-63.84,34.54-60.78,9.95,1.93,6.76,25.35,20.72,31.08,19.16,7.86,43.83-28.57,54.91-21.76,8.55,5.26,6.54,34.77-8.29,44.21-13.35,8.5-25.52-6.65-55.6-4.49-28.38,2.04-40.54,17.17-46.28,11.74Z"/>
  <path class="cls-1" d="M597.86,5.55c-9.49-10.04-63.84,18.82-60.78,34.54,1.93,9.95,25.35,6.76,31.08,20.72,7.86,19.16-28.57,43.83-21.76,54.91,5.26,8.55,34.77,6.54,44.21-8.29,8.5-13.35-6.65-25.52-4.49-55.6,2.04-28.38,17.17-40.54,11.74-46.28Z"/>
  <path class="cls-2" d="M536.11,11.74c10.04,9.49-18.82,63.84-34.54,60.78-9.95-1.93-6.76-25.35-20.72-31.08-19.16-7.86-43.83,28.57-54.91,21.76-8.55-5.26-6.54-34.77,8.29-44.21,13.35-8.5,25.52,6.65,55.6,4.49,28.38-2.04,40.54-17.17,46.28-11.74Z"/>
  <path class="cls-3" d="M24.47,103.31c-10.04-9.49,18.82-63.84,34.54-60.78,9.95,1.93,6.76,25.35,20.72,31.08,19.16,7.86,43.83-28.57,54.91-21.76,8.55,5.26,6.54,34.77-8.29,44.21-13.35,8.5-25.52-6.65-55.6-4.49-28.38,2.04-40.54,17.17-46.28,11.74Z"/>
  <path class="cls-1" d="M179.2,2.57c-9.49-10.04-63.84,18.82-60.78,34.54,1.93,9.95,25.35,6.76,31.08,20.72,7.86,19.16-28.57,43.83-21.76,54.91,5.26,8.55,34.77,6.54,44.21-8.29,8.5-13.35-6.65-25.52-4.49-55.6,2.04-28.38,17.17-40.54,11.74-46.28Z"/>
  <path class="cls-2" d="M117.45,8.77c10.04,9.49-18.82,63.84-34.54,60.78-9.95-1.93-6.76-25.35-20.72-31.08-19.16-7.86-43.83,28.57-54.91,21.76C-1.27,54.96.74,25.45,15.57,16.02c13.35-8.5,25.52,6.65,55.6,4.49,28.38-2.04,40.54-17.17,46.28-11.74Z"/>
  <path class="cls-3" d="M24.47,758.13c-10.04-9.49,18.82-63.84,34.54-60.78,9.95,1.93,6.76,25.35,20.72,31.08,19.16,7.86,43.83-28.57,54.91-21.76,8.55,5.26,6.54,34.77-8.29,44.21-13.35,8.5-25.52-6.65-55.6-4.49-28.38,2.04-40.54,17.17-46.28,11.74Z"/>
  <path class="cls-1" d="M179.2,657.4c-9.49-10.04-63.84,18.82-60.78,34.54,1.93,9.95,25.35,6.76,31.08,20.72,7.86,19.16-28.57,43.83-21.76,54.91,5.26,8.55,34.77,6.54,44.21-8.29,8.5-13.35-6.65-25.52-4.49-55.6,2.04-28.38,17.17-40.54,11.74-46.28Z"/>
  <path class="cls-2" d="M117.45,663.59c10.04,9.49-18.82,63.84-34.54,60.78-9.95-1.93-6.76-25.35-20.72-31.08-19.16-7.86-43.83,28.57-54.91,21.76-8.55-5.26-6.54-34.77,8.29-44.21,13.35-8.5,25.52,6.65,55.6,4.49,28.38-2.04,40.54-17.17,46.28-11.74Z"/>
  <path class="cls-3" d="M443.73,365.34c-13.81.39-31.83-58.45-18.56-67.4,8.4-5.67,22.71,13.15,36.63,7.33,19.11-7.99,10.79-51.2,23.44-54.21,9.77-2.33,29.21,19.96,25.4,37.12-3.43,15.45-22.75,13.34-42.49,36.14-18.62,21.51-16.53,40.81-24.42,41.03Z"/>
  <path class="cls-1" d="M481.92,184.7c-13.81-.39-31.83,58.45-18.56,67.4,8.4,5.67,22.71-13.15,36.63-7.33,19.11,7.99,10.79,51.2,23.44,54.21,9.77,2.33,29.21-19.96,25.4-37.12-3.43-15.45-22.75-13.34-42.49-36.14-18.62-21.51-16.53-40.81-24.42-41.03Z"/>
  <path class="cls-2" d="M442.63,232.75c13.81-.39,31.83,58.45,18.56,67.4-8.4,5.67-22.71-13.15-36.63-7.33-19.11,7.99-10.79,51.2-23.44,54.21-9.77,2.33-29.21-19.96-25.4-37.12,3.43-15.45,22.75-13.34,42.49-36.14,18.62-21.51,16.53-40.81,24.42-41.03Z"/>
  <path class="cls-3" d="M484.84,488.2c-12.09.34-27.86-51.15-16.24-58.98,7.35-4.96,19.87,11.51,32.06,6.41,16.72-6.99,9.44-44.8,20.52-47.44,8.55-2.04,25.56,17.47,22.23,32.48-3.01,13.52-19.91,11.68-37.19,31.63-16.3,18.82-14.47,35.71-21.37,35.9Z"/>
  <path class="cls-1" d="M518.26,330.12c-12.09-.34-27.86,51.15-16.24,58.98,7.35,4.96,19.87-11.51,32.06-6.41,16.72,6.99,9.44,44.8,20.52,47.44,8.55,2.04,25.56-17.47,22.23-32.48-3.01-13.52-19.91-11.68-37.19-31.63-16.3-18.82-14.47-35.71-21.37-35.9Z"/>
  <path class="cls-2" d="M483.88,372.16c12.09-.34,27.86,51.15,16.24,58.98-7.35,4.96-19.87-11.51-32.06-6.41-16.72,6.99-9.44,44.8-20.52,47.44-8.55,2.04-25.56-17.47-22.23-32.48,3.01-13.52,19.91-11.68,37.19-31.63,16.3-18.82,14.47-35.71,21.37-35.9Z"/>
  <path class="cls-3" d="M44.6,320.22c-8.89.25-20.49-37.63-11.95-43.39,5.41-3.65,14.62,8.47,23.58,4.72,12.3-5.15,6.94-32.96,15.09-34.9,6.29-1.5,18.81,12.85,16.35,23.9-2.21,9.95-14.64,8.59-27.36,23.27-11.99,13.85-10.64,26.27-15.72,26.41Z"/>
  <path class="cls-1" d="M69.19,203.92c-8.89-.25-20.49,37.63-11.95,43.39,5.41,3.65,14.62-8.47,23.58-4.72,12.3,5.15,6.94,32.96,15.09,34.9,6.29,1.5,18.81-12.85,16.35-23.9-2.21-9.95-14.64-8.59-27.36-23.27-11.99-13.85-10.64-26.27-15.72-26.41Z"/>
  <path class="cls-2" d="M43.89,234.85c8.89-.25,20.49,37.63,11.95,43.39-5.41,3.65-14.62-8.47-23.58-4.72-12.3,5.15-6.94,32.96-15.09,34.9-6.29,1.5-18.81-12.85-16.35-23.9,2.21-9.95,14.64-8.59,27.36-23.27,11.99-13.85,10.64-26.27,15.72-26.41Z"/>
  <path class="cls-3" d="M33.3,190.48c-6.47-6.11,12.12-41.1,22.23-39.13,6.41,1.24,4.35,16.32,13.34,20.01,12.34,5.06,28.22-18.4,35.35-14.01,5.51,3.39,4.21,22.39-5.34,28.46-8.6,5.47-16.43-4.28-35.8-2.89-18.27,1.31-26.1,11.05-29.79,7.56Z"/>
  <path class="cls-1" d="M132.92,125.63c-6.11-6.47-41.1,12.12-39.13,22.23,1.24,6.41,16.32,4.35,20.01,13.34,5.06,12.34-18.4,28.22-14.01,35.35,3.39,5.51,22.39,4.21,28.46-5.34,5.47-8.6-4.28-16.43-2.89-35.8,1.31-18.27,11.05-26.1,7.56-29.79Z"/>
  <path class="cls-2" d="M93.16,129.62c6.47,6.11-12.12,41.1-22.23,39.13-6.41-1.24-4.35-16.32-13.34-20.01-12.34-5.06-28.22,18.4-35.35,14.01-5.51-3.39-4.21-22.39,5.34-28.46,8.6-5.47,16.43,4.28,35.8,2.89,18.27-1.31,26.1-11.05,29.79-7.56Z"/>
  <path class="cls-3" d="M48.94,614.3c-8.89.25-20.49-37.63-11.95-43.39,5.41-3.65,14.62,8.47,23.58,4.72,12.3-5.15,6.94-32.96,15.09-34.9,6.29-1.5,18.81,12.85,16.35,23.9-2.21,9.95-14.64,8.59-27.36,23.27-11.99,13.85-10.64,26.27-15.72,26.41Z"/>
  <path class="cls-1" d="M73.52,498c-8.89-.25-20.49,37.63-11.95,43.39,5.41,3.65,14.62-8.47,23.58-4.72,12.3,5.15,6.94,32.96,15.09,34.9,6.29,1.5,18.81-12.85,16.35-23.9-2.21-9.95-14.64-8.59-27.36-23.27-11.99-13.85-10.64-26.27-15.72-26.41Z"/>
  <path class="cls-2" d="M48.23,528.93c8.89-.25,20.49,37.63,11.95,43.39-5.41,3.65-14.62-8.47-23.58-4.72-12.3,5.15-6.94,32.96-15.09,34.9-6.29,1.5-18.81-12.85-16.35-23.9,2.21-9.95,14.64-8.59,27.36-23.27,11.99-13.85,10.64-26.27,15.72-26.41Z"/>
  <path class="cls-3" d="M538.15,532.84c-7.26.2-16.73-30.72-9.75-35.42,4.42-2.98,11.93,6.91,19.25,3.85,10.04-4.2,5.67-26.9,12.32-28.49,5.13-1.22,15.35,10.49,13.35,19.51-1.81,8.12-11.95,7.01-22.33,18.99-9.79,11.3-8.69,21.44-12.83,21.56Z"/>
  <path class="cls-1" d="M558.21,437.91c-7.26-.2-16.73,30.72-9.75,35.42,4.42,2.98,11.93-6.91,19.25-3.85,10.04,4.2,5.67,26.9,12.32,28.49,5.13,1.22,15.35-10.49,13.35-19.51-1.81-8.12-11.95-7.01-22.33-18.99-9.79-11.3-8.69-21.44-12.83-21.56Z"/>
  <path class="cls-2" d="M537.57,463.16c7.26-.2,16.73,30.72,9.75,35.42-4.42,2.98-11.93-6.91-19.25-3.85-10.04,4.2-5.67,26.9-12.32,28.49-5.13,1.22-15.35-10.49-13.35-19.51,1.81-8.12,11.95-7.01,22.33-18.99,9.79-11.3,8.69-21.44,12.83-21.56Z"/>
  <path class="cls-3" d="M510.69,193.85c-5.28-4.99,9.89-33.55,18.15-31.94,5.23,1.02,3.55,13.32,10.89,16.33,10.07,4.13,23.03-15.02,28.86-11.43,4.5,2.77,3.44,18.27-4.36,23.23-7.02,4.46-13.41-3.49-29.22-2.36-14.91,1.07-21.31,9.02-24.32,6.17Z"/>
  <path class="cls-1" d="M592.01,140.91c-4.99-5.28-33.55,9.89-31.94,18.15,1.02,5.23,13.32,3.55,16.33,10.89,4.13,10.07-15.02,23.03-11.43,28.86,2.77,4.5,18.27,3.44,23.23-4.36,4.46-7.02-3.49-13.41-2.36-29.22,1.07-14.91,9.02-21.31,6.17-24.32Z"/>
  <path class="cls-2" d="M559.55,144.17c5.28,4.99-9.89,33.55-18.15,31.94-5.23-1.02-3.55-13.32-10.89-16.33-10.07-4.13-23.03,15.02-28.86,11.43-4.5-2.77-3.44-18.27,4.36-23.23,7.02-4.46,13.41,3.49,29.22,2.36,14.91-1.07,21.31-9.02,24.32-6.17Z"/>
  <path class="cls-3" d="M514.64,768c-5.28-4.99,9.89-33.55,18.15-31.94,5.23,1.02,3.55,13.32,10.89,16.33,10.07,4.13,23.03-15.02,28.86-11.43,4.5,2.77,3.44,18.27-4.36,23.23-7.02,4.46-13.41-3.49-29.22-2.36-14.91,1.07-21.31,9.02-24.32,6.17Z"/>
  <path class="cls-1" d="M595.95,715.06c-4.99-5.28-33.55,9.89-31.94,18.15,1.02,5.23,13.32,3.55,16.33,10.89,4.13,10.07-15.02,23.03-11.43,28.86,2.77,4.5,18.27,3.44,23.23-4.36,4.46-7.02-3.49-13.41-2.36-29.22,1.07-14.91,9.02-21.31,6.17-24.32Z"/>
  <path class="cls-2" d="M563.5,718.32c5.28,4.99-9.89,33.55-18.15,31.94-5.23-1.02-3.55-13.32-10.89-16.33-10.07-4.13-23.03,15.02-28.86,11.43-4.5-2.77-3.44-18.27,4.36-23.23,7.02-4.46,13.41,3.49,29.22,2.36,14.91-1.07,21.31-9.02,24.32-6.17Z"/>
  <path class="cls-3" d="M345.78,721.94c-.2-7.26,30.72-16.73,35.42-9.75,2.98,4.42-6.91,11.93-3.85,19.25,4.2,10.04,26.9,5.67,28.49,12.32,1.22,5.13-10.49,15.35-19.51,13.35-8.12-1.81-7.01-11.95-18.99-22.33-11.3-9.79-21.44-8.69-21.56-12.83Z"/>
  <path class="cls-1" d="M440.71,742.01c.2-7.26-30.72-16.73-35.42-9.75-2.98,4.42,6.91,11.93,3.85,19.25-4.2,10.04-26.9,5.67-28.49,12.32-1.22,5.13,10.49,15.35,19.51,13.35,8.12-1.81,7.01-11.95,18.99-22.33,11.3-9.79,21.44-8.69,21.56-12.83Z"/>
  <path class="cls-2" d="M415.46,721.36c.2,7.26-30.72,16.73-35.42,9.75-2.98-4.42,6.91-11.93,3.85-19.25-4.2-10.04-26.9-5.67-28.49-12.32-1.22-5.13,10.49-15.35,19.51-13.35,8.12,1.81,7.01,11.95,18.99,22.33,11.3,9.79,21.44,8.69,21.56,12.83Z"/>
  <path class="cls-3" d="M322.83,39.48c-.2-7.26,30.72-16.73,35.42-9.75,2.98,4.42-6.91,11.93-3.85,19.25,4.2,10.04,26.9,5.67,28.49,12.32,1.22,5.13-10.49,15.35-19.51,13.35-8.12-1.81-7.01-11.95-18.99-22.33-11.3-9.79-21.44-8.69-21.56-12.83Z"/>
  <path class="cls-1" d="M417.76,59.54c.2-7.26-30.72-16.73-35.42-9.75-2.98,4.42,6.91,11.93,3.85,19.25-4.2,10.04-26.9,5.67-28.49,12.32-1.22,5.13,10.49,15.35,19.51,13.35,8.12-1.81,7.01-11.95,18.99-22.33,11.3-9.79,21.44-8.69,21.56-12.83Z"/>
  <path class="cls-2" d="M392.51,38.9c.2,7.26-30.72,16.73-35.42,9.75-2.98-4.42,6.91-11.93,3.85-19.25-4.2-10.04-26.9-5.67-28.49-12.32-1.22-5.13,10.49-15.35,19.51-13.35,8.12,1.81,7.01,11.95,18.99,22.33,11.3,9.79,21.44,8.69,21.56,12.83Z"/>
</svg>